<svg xmlns="http://www.w3.org/2000/svg" xmlns:xlink="http://www.w3.org/1999/xlink" width="500" zoomAndPan="magnify" viewBox="0 0 375 374.999991" height="500" preserveAspectRatio="xMidYMid meet" version="1.0"><defs><clipPath id="91fab3eaef"><path d="M 58 125 L 299.589844 125 L 299.589844 374.933594 L 58 374.933594 Z M 58 125 " clip-rule="nonzero"/></clipPath><clipPath id="3c5fb65be0"><path d="M 223 85 L 281 85 L 281 105 L 223 105 Z M 223 85 " clip-rule="nonzero"/></clipPath><clipPath id="0068943075"><path d="M 186.292969 65.410156 L 251.707031 -0.0078125 L 317.125 65.410156 L 251.707031 130.828125 Z M 186.292969 65.410156 " clip-rule="nonzero"/></clipPath><clipPath id="4489566bcf"><path d="M 186.292969 65.410156 L 251.707031 -0.0078125 L 317.125 65.410156 L 251.707031 130.828125 Z M 186.292969 65.410156 " clip-rule="nonzero"/></clipPath><clipPath id="f8a383bf95"><path d="M 205 61 L 298 61 L 298 88 L 205 88 Z M 205 61 " clip-rule="nonzero"/></clipPath><clipPath id="b2b959d12d"><path d="M 186.292969 65.410156 L 251.707031 -0.0078125 L 317.125 65.410156 L 251.707031 130.828125 Z M 186.292969 65.410156 " clip-rule="nonzero"/></clipPath><clipPath id="e87f49446f"><path d="M 186.292969 65.410156 L 251.707031 -0.0078125 L 317.125 65.410156 L 251.707031 130.828125 Z M 186.292969 65.410156 " clip-rule="nonzero"/></clipPath><clipPath id="32f8fe2326"><path d="M 188 36 L 316 36 L 316 70 L 188 70 Z M 188 36 " clip-rule="nonzero"/></clipPath><clipPath id="4221c2840e"><path d="M 186.292969 65.410156 L 251.707031 -0.0078125 L 317.125 65.410156 L 251.707031 130.828125 Z M 186.292969 65.410156 " clip-rule="nonzero"/></clipPath><clipPath id="f5a5756f0d"><path d="M 186.292969 65.410156 L 251.707031 -0.0078125 L 317.125 65.410156 L 251.707031 130.828125 Z M 186.292969 65.410156 " clip-rule="nonzero"/></clipPath></defs><g clip-path="url(#91fab3eaef)"><path fill="#e1f340" d="M 205.628906 358.007812 C 172.347656 372.535156 132.503906 357.28125 118.660156 321.550781 C 110.359375 300.167969 112.140625 272.15625 128.53125 251.148438 L 229.136719 251.148438 C 255.707031 283.859375 247.015625 339.964844 205.628906 358.007812 Z M 270.457031 142.648438 L 225.003906 142.648438 L 225.003906 173.464844 C 215.761719 163.902344 190.910156 138.191406 179.0625 125.949219 C 176.773438 128.316406 85.574219 222.664062 58.03125 251.148438 L 73.105469 251.148438 C 60.917969 279.160156 61.402344 312.636719 72.621094 339.316406 C 110.308594 429.109375 245.867188 431.039062 285.339844 338.703125 C 297.15625 311.078125 296.621094 277.683594 285.453125 251.148438 L 300.089844 251.148438 L 270.457031 220.492188 L 270.457031 142.648438 " fill-opacity="1" fill-rule="nonzero"/></g><g clip-path="url(#3c5fb65be0)"><g clip-path="url(#0068943075)"><g clip-path="url(#4489566bcf)"><path fill="#e1f340" d="M 224.433594 97.003906 C 224.230469 97.207031 224.046875 97.429688 223.886719 97.671875 C 223.722656 97.914062 223.589844 98.167969 223.476562 98.433594 C 223.367188 98.703125 223.28125 98.980469 223.226562 99.265625 C 223.167969 99.546875 223.140625 99.835938 223.140625 100.125 C 223.140625 100.414062 223.167969 100.703125 223.226562 100.988281 C 223.28125 101.273438 223.367188 101.546875 223.476562 101.816406 C 223.589844 102.082031 223.722656 102.339844 223.886719 102.578125 C 224.046875 102.820312 224.230469 103.042969 224.433594 103.25 C 224.640625 103.453125 224.863281 103.636719 225.105469 103.796875 C 225.34375 103.960938 225.597656 104.09375 225.867188 104.207031 C 226.136719 104.316406 226.410156 104.402344 226.695312 104.457031 C 226.980469 104.515625 227.269531 104.542969 227.558594 104.542969 C 227.847656 104.542969 228.136719 104.515625 228.417969 104.457031 C 228.703125 104.402344 228.980469 104.316406 229.246094 104.207031 C 229.515625 104.09375 229.769531 103.960938 230.011719 103.796875 C 230.253906 103.636719 230.476562 103.453125 230.679688 103.25 C 231.375 102.558594 232.097656 101.902344 232.855469 101.285156 C 233.613281 100.667969 234.398438 100.085938 235.210938 99.542969 C 236.027344 99 236.863281 98.5 237.726562 98.039062 C 238.589844 97.582031 239.476562 97.164062 240.378906 96.792969 C 241.28125 96.417969 242.203125 96.089844 243.140625 95.808594 C 244.074219 95.523438 245.023438 95.289062 245.980469 95.097656 C 246.941406 94.90625 247.90625 94.765625 248.878906 94.667969 C 249.855469 94.574219 250.828125 94.527344 251.808594 94.527344 C 252.785156 94.527344 253.761719 94.574219 254.734375 94.671875 C 255.707031 94.765625 256.671875 94.910156 257.632812 95.101562 C 258.59375 95.289062 259.539062 95.527344 260.476562 95.8125 C 261.410156 96.09375 262.332031 96.421875 263.234375 96.796875 C 264.140625 97.171875 265.023438 97.585938 265.886719 98.046875 C 266.746094 98.507812 267.585938 99.007812 268.398438 99.550781 C 269.214844 100.09375 270 100.675781 270.753906 101.292969 C 271.511719 101.914062 272.238281 102.570312 272.929688 103.257812 C 273.136719 103.464844 273.359375 103.648438 273.601562 103.808594 C 273.839844 103.972656 274.097656 104.109375 274.363281 104.21875 C 274.632812 104.328125 274.910156 104.414062 275.195312 104.46875 C 275.480469 104.527344 275.769531 104.554688 276.058594 104.554688 C 276.347656 104.554688 276.636719 104.527344 276.921875 104.46875 C 277.207031 104.414062 277.484375 104.328125 277.75 104.21875 C 278.019531 104.109375 278.273438 103.972656 278.515625 103.808594 C 278.757812 103.648438 278.980469 103.464844 279.1875 103.257812 C 279.390625 103.054688 279.574219 102.832031 279.738281 102.589844 C 279.898438 102.347656 280.035156 102.09375 280.144531 101.824219 C 280.257812 101.554688 280.339844 101.277344 280.398438 100.996094 C 280.453125 100.710938 280.484375 100.421875 280.484375 100.132812 C 280.484375 99.839844 280.453125 99.554688 280.398438 99.269531 C 280.339844 98.984375 280.257812 98.707031 280.144531 98.4375 C 280.035156 98.167969 279.898438 97.914062 279.738281 97.671875 C 279.574219 97.429688 279.390625 97.207031 279.1875 97.003906 C 278.289062 96.109375 277.351562 95.257812 276.367188 94.457031 C 275.386719 93.652344 274.371094 92.902344 273.316406 92.199219 C 272.261719 91.496094 271.175781 90.84375 270.054688 90.25 C 268.9375 89.652344 267.792969 89.113281 266.621094 88.628906 C 265.449219 88.144531 264.257812 87.71875 263.046875 87.351562 C 261.832031 86.984375 260.605469 86.675781 259.359375 86.429688 C 258.117188 86.183594 256.863281 86 255.605469 85.875 C 254.34375 85.75 253.078125 85.6875 251.8125 85.6875 C 250.542969 85.6875 249.277344 85.75 248.015625 85.875 C 246.757812 86 245.503906 86.183594 244.261719 86.429688 C 243.015625 86.675781 241.789062 86.984375 240.578125 87.351562 C 239.363281 87.71875 238.171875 88.144531 237 88.628906 C 235.828125 89.113281 234.683594 89.652344 233.566406 90.25 C 232.445312 90.84375 231.359375 91.496094 230.304688 92.199219 C 229.25 92.902344 228.234375 93.652344 227.253906 94.457031 C 226.269531 95.257812 225.332031 96.109375 224.433594 97.003906 Z M 224.433594 97.003906 " fill-opacity="1" fill-rule="nonzero"/></g></g></g><g clip-path="url(#f8a383bf95)"><g clip-path="url(#b2b959d12d)"><g clip-path="url(#e87f49446f)"><path fill="#e1f340" d="M 207.039062 79.605469 C 206.835938 79.8125 206.652344 80.035156 206.488281 80.277344 C 206.328125 80.515625 206.191406 80.773438 206.082031 81.039062 C 205.972656 81.308594 205.886719 81.585938 205.832031 81.867188 C 205.773438 82.152344 205.746094 82.441406 205.746094 82.730469 C 205.746094 83.019531 205.773438 83.308594 205.832031 83.59375 C 205.886719 83.875 205.972656 84.152344 206.082031 84.421875 C 206.191406 84.6875 206.328125 84.941406 206.488281 85.183594 C 206.652344 85.425781 206.835938 85.648438 207.039062 85.851562 C 207.246094 86.058594 207.46875 86.242188 207.707031 86.402344 C 207.949219 86.5625 208.203125 86.699219 208.472656 86.8125 C 208.738281 86.921875 209.015625 87.003906 209.300781 87.0625 C 209.585938 87.117188 209.871094 87.148438 210.164062 87.148438 C 210.453125 87.148438 210.738281 87.117188 211.023438 87.0625 C 211.308594 87.003906 211.585938 86.921875 211.851562 86.8125 C 212.121094 86.699219 212.375 86.5625 212.617188 86.402344 C 212.855469 86.242188 213.082031 86.058594 213.285156 85.851562 C 214.546875 84.59375 215.871094 83.398438 217.25 82.269531 C 218.628906 81.140625 220.0625 80.082031 221.542969 79.09375 C 223.027344 78.105469 224.558594 77.191406 226.128906 76.351562 C 227.703125 75.511719 229.316406 74.753906 230.960938 74.070312 C 232.609375 73.390625 234.289062 72.792969 235.996094 72.277344 C 237.703125 71.757812 239.429688 71.328125 241.179688 70.980469 C 242.929688 70.632812 244.691406 70.375 246.464844 70.199219 C 248.238281 70.027344 250.019531 69.941406 251.800781 69.941406 C 253.585938 69.941406 255.363281 70.03125 257.136719 70.207031 C 258.910156 70.378906 260.671875 70.640625 262.421875 70.992188 C 264.171875 71.339844 265.898438 71.773438 267.605469 72.289062 C 269.3125 72.808594 270.988281 73.40625 272.636719 74.089844 C 274.285156 74.773438 275.894531 75.53125 277.464844 76.371094 C 279.039062 77.214844 280.566406 78.128906 282.050781 79.117188 C 283.53125 80.109375 284.964844 81.167969 286.34375 82.300781 C 287.722656 83.429688 289.042969 84.625 290.304688 85.886719 C 290.507812 86.09375 290.734375 86.277344 290.976562 86.4375 C 291.21875 86.601562 291.472656 86.738281 291.742188 86.847656 C 292.011719 86.960938 292.289062 87.042969 292.578125 87.101562 C 292.863281 87.15625 293.152344 87.1875 293.441406 87.1875 C 293.734375 87.1875 294.023438 87.15625 294.308594 87.101562 C 294.59375 87.042969 294.871094 86.960938 295.140625 86.847656 C 295.410156 86.738281 295.667969 86.601562 295.910156 86.4375 C 296.152344 86.277344 296.375 86.09375 296.582031 85.886719 C 296.789062 85.679688 296.972656 85.457031 297.132812 85.214844 C 297.296875 84.972656 297.433594 84.714844 297.542969 84.445312 C 297.65625 84.175781 297.742188 83.898438 297.796875 83.613281 C 297.855469 83.328125 297.882812 83.039062 297.882812 82.746094 C 297.882812 82.453125 297.855469 82.167969 297.796875 81.878906 C 297.742188 81.59375 297.65625 81.316406 297.542969 81.046875 C 297.433594 80.777344 297.296875 80.523438 297.132812 80.28125 C 296.972656 80.039062 296.789062 79.8125 296.582031 79.605469 C 295.847656 78.875 295.097656 78.160156 294.332031 77.464844 C 293.5625 76.769531 292.777344 76.089844 291.976562 75.433594 C 291.175781 74.777344 290.359375 74.140625 289.527344 73.523438 C 288.695312 72.90625 287.847656 72.308594 286.988281 71.734375 C 286.125 71.15625 285.25 70.601562 284.363281 70.070312 C 283.472656 69.539062 282.570312 69.027344 281.65625 68.539062 C 280.742188 68.050781 279.820312 67.585938 278.882812 67.140625 C 277.945312 66.699219 277 66.277344 276.039062 65.882812 C 275.082031 65.484375 274.117188 65.113281 273.140625 64.761719 C 272.164062 64.414062 271.183594 64.089844 270.191406 63.789062 C 269.199219 63.488281 268.199219 63.210938 267.195312 62.960938 C 266.191406 62.707031 265.179688 62.480469 264.164062 62.277344 C 263.148438 62.078125 262.125 61.898438 261.101562 61.746094 C 260.074219 61.59375 259.046875 61.46875 258.015625 61.367188 C 256.984375 61.265625 255.953125 61.1875 254.917969 61.136719 C 253.882812 61.085938 252.847656 61.0625 251.8125 61.0625 C 250.773438 61.0625 249.738281 61.085938 248.703125 61.136719 C 247.667969 61.1875 246.636719 61.265625 245.605469 61.367188 C 244.574219 61.46875 243.546875 61.59375 242.519531 61.746094 C 241.496094 61.898438 240.472656 62.078125 239.457031 62.277344 C 238.441406 62.480469 237.429688 62.707031 236.425781 62.960938 C 235.421875 63.210938 234.421875 63.488281 233.429688 63.789062 C 232.4375 64.089844 231.457031 64.414062 230.480469 64.761719 C 229.503906 65.113281 228.539062 65.484375 227.582031 65.882812 C 226.625 66.277344 225.675781 66.699219 224.738281 67.140625 C 223.800781 67.585938 222.878906 68.050781 221.964844 68.539062 C 221.050781 69.027344 220.148438 69.539062 219.257812 70.070312 C 218.371094 70.601562 217.496094 71.15625 216.632812 71.734375 C 215.773438 72.308594 214.925781 72.90625 214.09375 73.523438 C 213.261719 74.140625 212.445312 74.777344 211.644531 75.433594 C 210.84375 76.089844 210.058594 76.769531 209.289062 77.464844 C 208.523438 78.160156 207.773438 78.875 207.039062 79.605469 Z M 207.039062 79.605469 " fill-opacity="1" fill-rule="nonzero"/></g></g></g><g clip-path="url(#32f8fe2326)"><g clip-path="url(#4221c2840e)"><g clip-path="url(#f5a5756f0d)"><path fill="#e1f340" d="M 189.710938 62.277344 C 189.503906 62.480469 189.320312 62.707031 189.160156 62.945312 C 189 63.1875 188.863281 63.441406 188.75 63.710938 C 188.640625 63.976562 188.558594 64.253906 188.5 64.539062 C 188.445312 64.824219 188.414062 65.109375 188.414062 65.398438 C 188.414062 65.691406 188.445312 65.976562 188.5 66.261719 C 188.558594 66.546875 188.640625 66.824219 188.75 67.089844 C 188.863281 67.359375 189 67.613281 189.160156 67.855469 C 189.320312 68.09375 189.503906 68.320312 189.710938 68.523438 C 189.914062 68.726562 190.136719 68.910156 190.378906 69.074219 C 190.621094 69.234375 190.875 69.371094 191.140625 69.480469 C 191.410156 69.59375 191.6875 69.675781 191.972656 69.730469 C 192.253906 69.789062 192.542969 69.816406 192.832031 69.816406 C 193.121094 69.816406 193.410156 69.789062 193.695312 69.730469 C 193.976562 69.675781 194.253906 69.59375 194.523438 69.480469 C 194.789062 69.371094 195.046875 69.234375 195.285156 69.074219 C 195.527344 68.910156 195.75 68.726562 195.957031 68.523438 C 196.871094 67.609375 197.808594 66.722656 198.765625 65.855469 C 199.722656 64.988281 200.703125 64.144531 201.703125 63.328125 C 202.703125 62.507812 203.722656 61.714844 204.761719 60.945312 C 205.800781 60.175781 206.859375 59.433594 207.933594 58.71875 C 209.007812 58 210.101562 57.3125 211.210938 56.648438 C 212.316406 55.984375 213.441406 55.347656 214.582031 54.742188 C 215.722656 54.132812 216.878906 53.550781 218.046875 53 C 219.214844 52.449219 220.394531 51.925781 221.589844 51.433594 C 222.785156 50.9375 223.992188 50.476562 225.207031 50.039062 C 226.425781 49.605469 227.652344 49.199219 228.886719 48.828125 C 230.125 48.453125 231.371094 48.109375 232.625 47.792969 C 233.878906 47.480469 235.136719 47.199219 236.40625 46.945312 C 237.671875 46.695312 238.945312 46.472656 240.222656 46.285156 C 241.503906 46.097656 242.785156 45.9375 244.070312 45.8125 C 245.355469 45.683594 246.644531 45.589844 247.9375 45.527344 C 249.226562 45.464844 250.519531 45.433594 251.8125 45.433594 C 253.101562 45.433594 254.394531 45.464844 255.683594 45.527344 C 256.976562 45.589844 258.265625 45.683594 259.550781 45.8125 C 260.835938 45.9375 262.117188 46.097656 263.398438 46.285156 C 264.675781 46.472656 265.949219 46.695312 267.214844 46.945312 C 268.484375 47.199219 269.742188 47.480469 270.996094 47.792969 C 272.25 48.109375 273.496094 48.453125 274.734375 48.828125 C 275.96875 49.199219 277.195312 49.605469 278.414062 50.039062 C 279.632812 50.476562 280.835938 50.9375 282.03125 51.433594 C 283.226562 51.925781 284.40625 52.449219 285.574219 53 C 286.742188 53.550781 287.898438 54.132812 289.039062 54.742188 C 290.179688 55.347656 291.304688 55.984375 292.410156 56.648438 C 293.519531 57.3125 294.613281 58 295.6875 58.71875 C 296.765625 59.433594 297.820312 60.175781 298.859375 60.945312 C 299.898438 61.714844 300.917969 62.507812 301.917969 63.328125 C 302.917969 64.144531 303.898438 64.988281 304.855469 65.855469 C 305.8125 66.722656 306.75 67.609375 307.664062 68.523438 C 307.871094 68.730469 308.09375 68.914062 308.335938 69.074219 C 308.578125 69.234375 308.832031 69.371094 309.101562 69.484375 C 309.371094 69.59375 309.644531 69.675781 309.929688 69.734375 C 310.214844 69.789062 310.503906 69.820312 310.792969 69.820312 C 311.085938 69.820312 311.371094 69.789062 311.65625 69.734375 C 311.941406 69.675781 312.21875 69.59375 312.488281 69.484375 C 312.757812 69.371094 313.011719 69.234375 313.253906 69.074219 C 313.492188 68.914062 313.71875 68.730469 313.921875 68.523438 C 314.128906 68.316406 314.3125 68.09375 314.472656 67.851562 C 314.632812 67.613281 314.769531 67.355469 314.882812 67.089844 C 314.992188 66.820312 315.078125 66.542969 315.132812 66.257812 C 315.191406 65.972656 315.21875 65.683594 315.21875 65.394531 C 315.21875 65.105469 315.191406 64.816406 315.132812 64.53125 C 315.078125 64.246094 314.992188 63.96875 314.882812 63.703125 C 314.769531 63.433594 314.632812 63.179688 314.472656 62.9375 C 314.3125 62.695312 314.128906 62.472656 313.921875 62.265625 C 312.90625 61.253906 311.863281 60.265625 310.796875 59.300781 C 309.730469 58.339844 308.640625 57.402344 307.527344 56.496094 C 306.414062 55.585938 305.28125 54.703125 304.125 53.851562 C 302.96875 52.996094 301.796875 52.171875 300.597656 51.375 C 299.402344 50.582031 298.1875 49.8125 296.957031 49.078125 C 295.722656 48.339844 294.472656 47.636719 293.203125 46.960938 C 291.933594 46.285156 290.652344 45.640625 289.351562 45.027344 C 288.054688 44.414062 286.738281 43.835938 285.410156 43.285156 C 284.082031 42.738281 282.742188 42.222656 281.390625 41.742188 C 280.035156 41.257812 278.671875 40.808594 277.296875 40.394531 C 275.921875 39.976562 274.539062 39.59375 273.144531 39.246094 C 271.75 38.898438 270.347656 38.585938 268.941406 38.304688 C 267.53125 38.027344 266.117188 37.78125 264.695312 37.574219 C 263.273438 37.363281 261.847656 37.1875 260.417969 37.046875 C 258.988281 36.90625 257.554688 36.800781 256.121094 36.730469 C 254.6875 36.660156 253.25 36.625 251.8125 36.625 C 250.378906 36.625 248.941406 36.660156 247.507812 36.730469 C 246.070312 36.800781 244.640625 36.90625 243.210938 37.046875 C 241.78125 37.1875 240.355469 37.363281 238.933594 37.574219 C 237.511719 37.785156 236.097656 38.03125 234.6875 38.308594 C 233.277344 38.589844 231.878906 38.902344 230.484375 39.25 C 229.089844 39.597656 227.707031 39.980469 226.332031 40.398438 C 224.957031 40.8125 223.59375 41.261719 222.238281 41.746094 C 220.886719 42.230469 219.546875 42.746094 218.21875 43.292969 C 216.890625 43.839844 215.578125 44.421875 214.277344 45.035156 C 212.976562 45.648438 211.695312 46.292969 210.425781 46.96875 C 209.160156 47.640625 207.90625 48.347656 206.675781 49.085938 C 205.441406 49.820312 204.226562 50.589844 203.03125 51.386719 C 201.835938 52.179688 200.660156 53.007812 199.503906 53.859375 C 198.347656 54.714844 197.214844 55.59375 196.101562 56.503906 C 194.992188 57.414062 193.902344 58.351562 192.835938 59.3125 C 191.769531 60.277344 190.726562 61.261719 189.710938 62.277344 Z M 189.710938 62.277344 " fill-opacity="1" fill-rule="nonzero"/></g></g></g></svg>