<svg xmlns="http://www.w3.org/2000/svg" xmlns:xlink="http://www.w3.org/1999/xlink" width="1080" zoomAndPan="magnify" viewBox="0 0 810 809.999993" height="1080" preserveAspectRatio="xMidYMid meet" version="1.0"><defs><g/><clipPath id="28c6456217"><path d="M 151.527344 138.722656 L 651.152344 138.722656 L 651.152344 592.472656 L 151.527344 592.472656 Z M 151.527344 138.722656 " clip-rule="nonzero"/></clipPath></defs><path fill="#d96e30" d="M 16.851562 306.117188 C 8.945312 328.085938 2.96875 350.566406 -1.078125 373.558594 C -5.121094 396.550781 -7.179688 419.722656 -7.242188 443.070312 L 809.957031 443.070312 C 809.898438 419.710938 807.84375 396.523438 803.800781 373.515625 C 799.753906 350.507812 793.777344 328.015625 785.863281 306.035156 Z M 16.851562 306.117188 " fill-opacity="1" fill-rule="nonzero"/><path fill="#d96e30" d="M 20.433594 592.84375 L 782.324219 592.84375 C 790.828125 570.96875 797.394531 548.527344 802.019531 525.515625 C 806.648438 502.507812 809.265625 479.269531 809.878906 455.808594 L -7.242188 455.808594 C -6.613281 479.273438 -3.972656 502.511719 0.671875 525.523438 C 5.320312 548.53125 11.90625 570.972656 20.433594 592.84375 Z M 20.433594 592.84375 " fill-opacity="1" fill-rule="nonzero"/><path fill="#d98d30" d="M 677.847656 143.847656 C 673.191406 139.566406 668.433594 135.394531 663.582031 131.332031 C 658.730469 127.269531 653.785156 123.324219 648.75 119.492188 C 643.714844 115.660156 638.59375 111.945312 633.386719 108.351562 C 628.175781 104.757812 622.886719 101.289062 617.519531 97.941406 C 612.148438 94.59375 606.707031 91.371094 601.1875 88.277344 C 595.667969 85.179688 590.078125 82.214844 584.421875 79.378906 C 578.765625 76.542969 573.046875 73.84375 567.261719 71.273438 C 561.480469 68.703125 555.640625 66.269531 549.746094 63.96875 C 543.851562 61.671875 537.902344 59.511719 531.90625 57.492188 C 525.910156 55.46875 519.871094 53.585938 513.789062 51.84375 C 507.703125 50.105469 501.585938 48.503906 495.425781 47.046875 C 489.269531 45.589844 483.082031 44.277344 476.863281 43.109375 C 470.644531 41.941406 464.398438 40.914062 458.132812 40.035156 C 451.867188 39.15625 445.582031 38.425781 439.285156 37.835938 C 432.984375 37.25 426.671875 36.808594 420.351562 36.515625 C 414.03125 36.222656 407.707031 36.074219 401.378906 36.074219 C 395.050781 36.074219 388.726562 36.222656 382.40625 36.515625 C 376.085938 36.808594 369.773438 37.25 363.472656 37.835938 C 357.171875 38.425781 350.890625 39.15625 344.621094 40.035156 C 338.355469 40.914062 332.113281 41.941406 325.894531 43.109375 C 319.675781 44.277344 313.488281 45.589844 307.328125 47.046875 C 301.171875 48.503906 295.050781 50.105469 288.96875 51.84375 C 282.882812 53.585938 276.84375 55.46875 270.847656 57.492188 C 264.851562 59.511719 258.90625 61.671875 253.011719 63.96875 C 247.117188 66.269531 241.277344 68.703125 235.492188 71.273438 C 229.710938 73.84375 223.992188 76.542969 218.335938 79.378906 C 212.675781 82.214844 207.089844 85.179688 201.570312 88.277344 C 196.050781 91.371094 190.605469 94.59375 185.238281 97.941406 C 179.867188 101.289062 174.578125 104.757812 169.371094 108.351562 C 164.164062 111.945312 159.042969 115.660156 154.003906 119.492188 C 148.96875 123.324219 144.027344 127.269531 139.171875 131.332031 C 134.320312 135.394531 129.566406 139.566406 124.90625 143.847656 Z M 677.847656 143.847656 " fill-opacity="1" fill-rule="nonzero"/><path fill="#d98d30" d="M 781.0625 293.5 C 775.964844 280.707031 770.230469 268.207031 763.867188 255.996094 C 757.503906 243.78125 750.539062 231.921875 742.976562 220.414062 C 735.414062 208.90625 727.289062 197.8125 718.601562 187.125 C 709.917969 176.441406 700.714844 166.21875 690.996094 156.464844 L 111.722656 156.464844 C 102 166.21875 92.796875 176.441406 84.113281 187.125 C 75.425781 197.8125 67.300781 208.90625 59.738281 220.414062 C 52.175781 231.921875 45.210938 243.78125 38.847656 255.996094 C 32.484375 268.207031 26.753906 280.707031 21.652344 293.5 Z M 781.0625 293.5 " fill-opacity="1" fill-rule="nonzero"/><g clip-path="url(#28c6456217)"><path fill="#ffffff" d="M 161.460938 371.277344 C 167.933594 368.867188 172.46875 368.308594 185.660156 354.9375 C 203.113281 337.242188 197.054688 354.769531 188.734375 368.976562 C 187.171875 371.625 190.316406 374.523438 192.792969 372.707031 C 202.785156 365.355469 208.214844 360.539062 215.527344 351.925781 C 228.558594 336.597656 236.625 336.71875 227.25 353.878906 C 215.277344 375.789062 247.5625 362.144531 265.257812 335.660156 C 275.722656 320.003906 277.554688 333.265625 273.671875 346.070312 C 268.492188 363.113281 290.585938 343.210938 300.226562 329.867188 C 309.855469 316.535156 325.742188 318.925781 317.003906 332.667969 C 308.273438 346.410156 330.035156 338.1875 342.574219 320.023438 C 353.007812 304.898438 352.628906 318.769531 350.765625 327.566406 C 305.09375 355.679688 250.3125 415.132812 278.722656 533.234375 C 279.515625 536.535156 284.074219 529.371094 285.398438 526.246094 C 288.09375 519.882812 290.789062 516.195312 290.101562 497.425781 C 289.191406 472.59375 297.792969 489.015625 302.429688 504.816406 C 303.292969 507.769531 307.554688 507.46875 307.925781 504.414062 C 309.433594 492.105469 309.652344 484.851562 308.394531 473.621094 C 306.167969 453.625 311.785156 447.839844 317.851562 466.421875 C 325.589844 490.160156 337.796875 457.3125 330.65625 426.269531 C 326.429688 407.921875 337.339844 415.675781 343.996094 427.285156 C 352.855469 442.746094 353.511719 413.003906 350.410156 396.855469 C 347.304688 380.695312 359.941406 370.769531 363.953125 386.546875 C 367.96875 402.328125 376.910156 380.855469 372.285156 359.277344 C 367.65625 337.695312 382.761719 356.140625 385.761719 362.394531 C 390.46875 372.230469 386.738281 353.648438 388.488281 343.335938 C 389.523438 337.226562 392.332031 333.496094 395.726562 331.664062 L 376.585938 969.097656 L 426.078125 969.097656 L 406.9375 331.625 C 411.09375 333.652344 414.28125 337.863281 414.261719 343.375 C 414.214844 353.832031 412.199219 372.253906 416.933594 362.441406 C 419.945312 356.195312 435.113281 337.789062 430.425781 359.351562 C 425.738281 380.914062 434.613281 402.417969 438.671875 386.648438 C 442.730469 370.882812 455.335938 380.839844 452.195312 396.988281 C 449.042969 413.140625 449.621094 442.875 458.523438 427.441406 C 465.210938 415.851562 476.144531 408.128906 471.863281 426.464844 C 464.632812 457.488281 476.757812 490.371094 484.5625 466.648438 C 490.671875 448.082031 496.277344 453.882812 493.996094 473.871094 C 492.710938 485.101562 492.914062 492.355469 494.382812 504.671875 C 494.746094 507.722656 499 508.035156 499.878906 505.089844 C 504.558594 489.304688 513.207031 472.894531 512.222656 497.730469 C 511.480469 516.5 514.175781 520.195312 516.847656 526.5625 C 518.164062 529.691406 522.699219 536.867188 523.503906 533.566406 C 552.238281 415.539062 497.625 355.945312 452.027344 327.703125 C 450.1875 318.898438 449.839844 305.03125 460.242188 320.183594 C 472.726562 338.386719 494.464844 346.667969 485.765625 332.894531 C 477.074219 319.132812 492.96875 316.785156 502.558594 330.148438 C 512.160156 343.511719 534.203125 363.476562 529.070312 346.417969 C 525.214844 333.609375 527.09375 320.351562 537.511719 336.03125 C 555.128906 362.570312 587.378906 376.296875 575.46875 354.347656 C 566.140625 337.167969 574.210938 337.070312 587.1875 352.429688 C 594.488281 361.070312 599.902344 365.894531 609.871094 373.277344 C 612.347656 375.101562 615.492188 372.214844 613.945312 369.558594 C 605.664062 355.324219 599.652344 337.789062 617.058594 355.519531 C 630.210938 368.9375 634.746094 369.503906 641.210938 371.929688 C 644.390625 373.117188 652.726562 374.738281 650.871094 371.882812 C 578.957031 261.277344 489.800781 269.484375 439.300781 286.605469 C 432.628906 282.234375 426.050781 280.734375 434.652344 279.054688 C 444.910156 277.046875 463.484375 276.335938 453.011719 273.285156 C 446.355469 271.332031 425.707031 259.40625 447.757812 260.480469 C 469.796875 261.558594 489.542969 249.269531 473.328125 247.851562 C 457.101562 246.445312 464.855469 232.375 481.300781 232.824219 C 497.746094 233.269531 526.980469 227.808594 510.289062 221.5625 C 497.761719 216.878906 488.339844 207.367188 507.132812 208.5625 C 538.917969 210.59375 569.363281 193.230469 544.6875 189.4375 C 525.367188 186.460938 530.167969 179.972656 550.261719 178.9375 C 561.542969 178.359375 568.660156 176.96875 580.578125 173.492188 C 583.523438 172.636719 583.128906 168.382812 580.078125 168.003906 C 563.738281 165.980469 546.132812 160.160156 570.789062 157.039062 C 589.429688 154.683594 592.625 151.421875 598.46875 147.734375 C 601.339844 145.921875 607.667969 140.269531 604.285156 140.011719 C 457.449219 129.199219 414.382812 230.640625 402.046875 281.613281 C 389.464844 230.605469 345.882812 129.046875 199.015625 139.464844 C 195.632812 139.699219 201.945312 145.378906 204.816406 147.195312 C 210.644531 150.898438 213.832031 154.167969 232.464844 156.578125 C 257.113281 159.765625 239.492188 165.542969 223.144531 167.519531 C 220.09375 167.890625 219.6875 172.136719 222.632812 173.007812 C 234.542969 176.511719 241.652344 177.921875 252.941406 178.535156 C 273.027344 179.625 277.8125 186.121094 258.484375 189.042969 C 233.792969 192.777344 264.183594 210.222656 295.984375 208.277344 C 314.777344 207.125 305.328125 216.621094 292.789062 221.269531 C 276.085938 227.460938 305.304688 233.003906 321.75 232.601562 C 338.195312 232.203125 345.910156 246.292969 329.6875 247.65625 C 313.460938 249.027344 333.175781 261.375 355.21875 260.359375 C 377.265625 259.347656 356.585938 271.210938 349.925781 273.140625 C 339.453125 276.171875 358.011719 276.933594 368.269531 278.964844 C 376.871094 280.667969 370.285156 282.152344 363.605469 286.496094 C 313.148438 269.242188 224.007812 260.792969 151.792969 371.207031 C 149.9375 374.046875 158.273438 372.449219 161.460938 371.277344 " fill-opacity="1" fill-rule="nonzero"/></g><g fill="#e6d7b3" fill-opacity="1"><g transform="translate(143.881198, 706.262912)"><g><path d="M 2.84375 0 C 2.414062 -0.46875 2.085938 -1.03125 1.859375 -1.6875 C 1.628906 -2.34375 1.515625 -3.019531 1.515625 -3.71875 C 2.828125 -3.71875 3.753906 -3.925781 4.296875 -4.34375 C 4.835938 -4.769531 5.109375 -5.523438 5.109375 -6.609375 L 5.109375 -33.875 C 5.109375 -34.957031 4.835938 -35.71875 4.296875 -36.15625 C 3.753906 -36.601562 2.828125 -36.828125 1.515625 -36.828125 C 1.515625 -37.523438 1.628906 -38.191406 1.859375 -38.828125 C 2.085938 -39.460938 2.414062 -40.015625 2.84375 -40.484375 L 17.171875 -40.484375 C 18.015625 -39.597656 18.4375 -38.378906 18.4375 -36.828125 C 17.125 -36.828125 16.15625 -36.59375 15.53125 -36.125 C 14.914062 -35.664062 14.609375 -34.914062 14.609375 -33.875 L 14.609375 -4.9375 L 16.765625 -4.9375 C 19.585938 -4.9375 21.679688 -5.863281 23.046875 -7.71875 C 24.421875 -9.570312 25.109375 -12.179688 25.109375 -15.546875 L 29.171875 -15.546875 C 29.828125 -15.046875 30.347656 -13.960938 30.734375 -12.296875 C 31.117188 -10.628906 31.3125 -9.003906 31.3125 -7.421875 C 31.3125 -4.984375 30.882812 -3.132812 30.03125 -1.875 C 29.1875 -0.625 27.800781 0 25.875 0 Z M 2.84375 0 "/></g></g></g><g fill="#e6d7b3" fill-opacity="1"><g transform="translate(190.685089, 706.262912)"><g><path d="M 2.953125 0 C 2.566406 -0.46875 2.257812 -1.03125 2.03125 -1.6875 C 1.800781 -2.34375 1.6875 -3.019531 1.6875 -3.71875 C 2.957031 -3.71875 3.851562 -3.925781 4.375 -4.34375 C 4.894531 -4.769531 5.15625 -5.523438 5.15625 -6.609375 L 5.15625 -33.875 C 5.15625 -34.957031 4.894531 -35.71875 4.375 -36.15625 C 3.851562 -36.601562 2.957031 -36.828125 1.6875 -36.828125 C 1.6875 -37.484375 1.800781 -38.140625 2.03125 -38.796875 C 2.257812 -39.453125 2.566406 -40.015625 2.953125 -40.484375 L 17.046875 -40.484375 C 17.429688 -40.015625 17.738281 -39.453125 17.96875 -38.796875 C 18.207031 -38.140625 18.328125 -37.484375 18.328125 -36.828125 C 17.046875 -36.828125 16.144531 -36.601562 15.625 -36.15625 C 15.101562 -35.71875 14.84375 -34.957031 14.84375 -33.875 L 14.84375 -6.609375 C 14.84375 -5.523438 15.101562 -4.769531 15.625 -4.34375 C 16.144531 -3.925781 17.046875 -3.71875 18.328125 -3.71875 C 18.328125 -3.019531 18.207031 -2.34375 17.96875 -1.6875 C 17.738281 -1.03125 17.429688 -0.46875 17.046875 0 Z M 2.953125 0 "/></g></g></g><g fill="#e6d7b3" fill-opacity="1"><g transform="translate(226.353717, 706.262912)"><g><path d="M 34.5625 -41.1875 C 35.1875 -39.832031 35.671875 -37.375 36.015625 -33.8125 C 36.367188 -30.257812 36.546875 -27.34375 36.546875 -25.0625 C 36.035156 -24.863281 35.25 -24.707031 34.1875 -24.59375 C 33.125 -24.476562 32.164062 -24.421875 31.3125 -24.421875 C 31.082031 -27.515625 30.707031 -29.890625 30.1875 -31.546875 C 29.664062 -33.210938 28.957031 -34.351562 28.0625 -34.96875 C 27.175781 -35.59375 26.019531 -35.90625 24.59375 -35.90625 L 23.609375 -35.90625 L 23.609375 -6.84375 C 23.609375 -5.757812 24.109375 -4.96875 25.109375 -4.46875 C 26.117188 -3.96875 27.664062 -3.71875 29.75 -3.71875 C 29.75 -3.019531 29.632812 -2.34375 29.40625 -1.6875 C 29.175781 -1.03125 28.847656 -0.46875 28.421875 0 L 8.703125 0 C 8.316406 -0.46875 8.003906 -1.03125 7.765625 -1.6875 C 7.535156 -2.34375 7.421875 -3.019531 7.421875 -3.71875 C 11.796875 -3.71875 13.984375 -4.757812 13.984375 -6.84375 L 13.984375 -35.90625 L 12.703125 -35.90625 C 8.640625 -35.90625 6.300781 -32.078125 5.6875 -24.421875 C 2.976562 -24.535156 1.238281 -24.75 0.46875 -25.0625 C 0.46875 -27.34375 0.640625 -30.257812 0.984375 -33.8125 C 1.335938 -37.375 1.820312 -39.832031 2.4375 -41.1875 C 4.21875 -41.1875 5.800781 -40.953125 7.1875 -40.484375 L 29.8125 -40.484375 C 31.28125 -40.953125 32.863281 -41.1875 34.5625 -41.1875 Z M 34.5625 -41.1875 "/></g></g></g><g fill="#e6d7b3" fill-opacity="1"><g transform="translate(279.015202, 706.262912)"><g><path d="M 34.5625 -41.1875 C 35.1875 -39.832031 35.671875 -37.375 36.015625 -33.8125 C 36.367188 -30.257812 36.546875 -27.34375 36.546875 -25.0625 C 36.035156 -24.863281 35.25 -24.707031 34.1875 -24.59375 C 33.125 -24.476562 32.164062 -24.421875 31.3125 -24.421875 C 31.082031 -27.515625 30.707031 -29.890625 30.1875 -31.546875 C 29.664062 -33.210938 28.957031 -34.351562 28.0625 -34.96875 C 27.175781 -35.59375 26.019531 -35.90625 24.59375 -35.90625 L 23.609375 -35.90625 L 23.609375 -6.84375 C 23.609375 -5.757812 24.109375 -4.96875 25.109375 -4.46875 C 26.117188 -3.96875 27.664062 -3.71875 29.75 -3.71875 C 29.75 -3.019531 29.632812 -2.34375 29.40625 -1.6875 C 29.175781 -1.03125 28.847656 -0.46875 28.421875 0 L 8.703125 0 C 8.316406 -0.46875 8.003906 -1.03125 7.765625 -1.6875 C 7.535156 -2.34375 7.421875 -3.019531 7.421875 -3.71875 C 11.796875 -3.71875 13.984375 -4.757812 13.984375 -6.84375 L 13.984375 -35.90625 L 12.703125 -35.90625 C 8.640625 -35.90625 6.300781 -32.078125 5.6875 -24.421875 C 2.976562 -24.535156 1.238281 -24.75 0.46875 -25.0625 C 0.46875 -27.34375 0.640625 -30.257812 0.984375 -33.8125 C 1.335938 -37.375 1.820312 -39.832031 2.4375 -41.1875 C 4.21875 -41.1875 5.800781 -40.953125 7.1875 -40.484375 L 29.8125 -40.484375 C 31.28125 -40.953125 32.863281 -41.1875 34.5625 -41.1875 Z M 34.5625 -41.1875 "/></g></g></g><g fill="#e6d7b3" fill-opacity="1"><g transform="translate(331.676699, 706.262912)"><g><path d="M 2.84375 0 C 2.414062 -0.46875 2.085938 -1.03125 1.859375 -1.6875 C 1.628906 -2.34375 1.515625 -3.019531 1.515625 -3.71875 C 2.828125 -3.71875 3.753906 -3.925781 4.296875 -4.34375 C 4.835938 -4.769531 5.109375 -5.523438 5.109375 -6.609375 L 5.109375 -33.875 C 5.109375 -34.957031 4.835938 -35.71875 4.296875 -36.15625 C 3.753906 -36.601562 2.828125 -36.828125 1.515625 -36.828125 C 1.515625 -37.523438 1.628906 -38.191406 1.859375 -38.828125 C 2.085938 -39.460938 2.414062 -40.015625 2.84375 -40.484375 L 17.171875 -40.484375 C 18.015625 -39.597656 18.4375 -38.378906 18.4375 -36.828125 C 17.125 -36.828125 16.15625 -36.59375 15.53125 -36.125 C 14.914062 -35.664062 14.609375 -34.914062 14.609375 -33.875 L 14.609375 -4.9375 L 16.765625 -4.9375 C 19.585938 -4.9375 21.679688 -5.863281 23.046875 -7.71875 C 24.421875 -9.570312 25.109375 -12.179688 25.109375 -15.546875 L 29.171875 -15.546875 C 29.828125 -15.046875 30.347656 -13.960938 30.734375 -12.296875 C 31.117188 -10.628906 31.3125 -9.003906 31.3125 -7.421875 C 31.3125 -4.984375 30.882812 -3.132812 30.03125 -1.875 C 29.1875 -0.625 27.800781 0 25.875 0 Z M 2.84375 0 "/></g></g></g><g fill="#e6d7b3" fill-opacity="1"><g transform="translate(378.480583, 706.262912)"><g><path d="M 34.734375 -12.234375 C 34.734375 -10.960938 34.425781 -8.691406 33.8125 -5.421875 C 33.195312 -2.148438 32.632812 -0.0351562 32.125 0.921875 C 31.507812 0.773438 30.703125 0.46875 29.703125 0 L 2.84375 0 C 1.957031 -1.15625 1.515625 -2.375 1.515625 -3.65625 C 2.828125 -3.65625 3.789062 -3.882812 4.40625 -4.34375 C 5.03125 -4.8125 5.34375 -5.585938 5.34375 -6.671875 L 5.34375 -33.875 C 5.34375 -34.914062 5.039062 -35.664062 4.4375 -36.125 C 3.832031 -36.59375 2.875 -36.828125 1.5625 -36.828125 C 1.5625 -38.109375 2.007812 -39.328125 2.90625 -40.484375 L 25.40625 -40.484375 C 26.0625 -40.796875 26.820312 -41.035156 27.6875 -41.203125 C 28.5625 -41.378906 29.367188 -41.46875 30.109375 -41.46875 C 30.679688 -40.34375 31.304688 -38.796875 31.984375 -36.828125 C 32.660156 -34.859375 33 -33.425781 33 -32.53125 C 32.539062 -32.113281 31.75 -31.671875 30.625 -31.203125 C 29.5 -30.742188 28.53125 -30.4375 27.71875 -30.28125 C 27.21875 -31.707031 26.425781 -32.941406 25.34375 -33.984375 C 24.257812 -35.023438 23.003906 -35.546875 21.578125 -35.546875 L 15.015625 -35.546875 L 15.015625 -23.3125 L 19.203125 -23.3125 C 21.710938 -23.3125 22.96875 -24.722656 22.96875 -27.546875 C 24.707031 -27.546875 26.273438 -27.140625 27.671875 -26.328125 L 27.671875 -15.546875 C 27.046875 -15.160156 26.328125 -14.859375 25.515625 -14.640625 C 24.703125 -14.429688 23.875 -14.328125 23.03125 -14.328125 C 23.03125 -15.796875 22.679688 -16.894531 21.984375 -17.625 C 21.285156 -18.363281 20.375 -18.734375 19.25 -18.734375 L 15.015625 -18.734375 L 15.015625 -5.109375 L 22.046875 -5.109375 C 23.660156 -5.109375 25.066406 -5.789062 26.265625 -7.15625 C 27.472656 -8.53125 28.226562 -10.222656 28.53125 -12.234375 Z M 34.734375 -12.234375 "/></g></g></g><g fill="#e6d7b3" fill-opacity="1"><g transform="translate(429.808156, 706.262912)"><g/></g></g><g fill="#e6d7b3" fill-opacity="1"><g transform="translate(456.487377, 706.262912)"><g><path d="M 17.75 -40.890625 C 23.707031 -40.890625 27.960938 -39.804688 30.515625 -37.640625 C 33.066406 -35.472656 34.34375 -32.1875 34.34375 -27.78125 C 34.34375 -25.1875 33.703125 -22.875 32.421875 -20.84375 C 31.148438 -18.820312 29.21875 -17.226562 26.625 -16.0625 C 24.03125 -14.90625 20.859375 -14.328125 17.109375 -14.328125 L 14.671875 -14.328125 L 14.671875 -9.21875 C 14.671875 -7.675781 14.84375 -6.515625 15.1875 -5.734375 C 15.539062 -4.960938 16.148438 -4.429688 17.015625 -4.140625 C 17.890625 -3.859375 19.21875 -3.71875 21 -3.71875 C 21 -3.019531 20.878906 -2.34375 20.640625 -1.6875 C 20.410156 -1.03125 20.101562 -0.46875 19.71875 0 L 2.84375 0 C 2.414062 -0.46875 2.085938 -1.03125 1.859375 -1.6875 C 1.628906 -2.34375 1.515625 -3.019531 1.515625 -3.71875 C 2.828125 -3.71875 3.757812 -3.9375 4.3125 -4.375 C 4.875 -4.820312 5.15625 -5.566406 5.15625 -6.609375 L 5.15625 -33.875 C 5.15625 -34.957031 4.875 -35.71875 4.3125 -36.15625 C 3.757812 -36.601562 2.828125 -36.828125 1.515625 -36.828125 C 1.515625 -38.140625 1.9375 -39.359375 2.78125 -40.484375 C 5.375 -40.484375 8.894531 -40.582031 13.34375 -40.78125 C 15.582031 -40.851562 17.050781 -40.890625 17.75 -40.890625 Z M 24.25 -27.953125 C 24.25 -30.429688 23.675781 -32.441406 22.53125 -33.984375 C 21.394531 -35.535156 19.488281 -36.3125 16.8125 -36.3125 C 15.96875 -36.3125 15.253906 -36.234375 14.671875 -36.078125 L 14.671875 -19.078125 C 15.023438 -19.003906 15.53125 -18.96875 16.1875 -18.96875 C 19.394531 -18.96875 21.539062 -19.816406 22.625 -21.515625 C 23.707031 -23.210938 24.25 -25.359375 24.25 -27.953125 Z M 24.25 -27.953125 "/></g></g></g><g fill="#e6d7b3" fill-opacity="1"><g transform="translate(507.061014, 706.262912)"><g><path d="M 34.921875 -7.65625 C 35.304688 -6.414062 35.960938 -5.445312 36.890625 -4.75 C 37.816406 -4.0625 38.800781 -3.71875 39.84375 -3.71875 C 39.84375 -3.019531 39.726562 -2.34375 39.5 -1.6875 C 39.269531 -1.03125 38.941406 -0.46875 38.515625 0 L 22.796875 0 C 22.367188 -0.46875 22.035156 -1.03125 21.796875 -1.6875 C 21.566406 -2.34375 21.453125 -3.019531 21.453125 -3.71875 C 23.660156 -3.71875 24.765625 -4.644531 24.765625 -6.5 C 24.765625 -7.269531 24.628906 -8.175781 24.359375 -9.21875 L 24.015625 -10.4375 L 11.015625 -10.4375 L 10.671875 -9.21875 C 10.328125 -8.019531 10.15625 -7.171875 10.15625 -6.671875 C 10.15625 -4.703125 11.390625 -3.71875 13.859375 -3.71875 C 13.859375 -3.019531 13.742188 -2.34375 13.515625 -1.6875 C 13.285156 -1.03125 12.957031 -0.46875 12.53125 0 L -0.40625 0 C -0.832031 -0.46875 -1.160156 -1.03125 -1.390625 -1.6875 C -1.617188 -2.34375 -1.734375 -3.019531 -1.734375 -3.71875 C -0.648438 -3.71875 0.332031 -4.035156 1.21875 -4.671875 C 2.101562 -5.304688 2.757812 -6.242188 3.1875 -7.484375 L 12.703125 -35.546875 C 11.148438 -36.054688 9.195312 -36.3125 6.84375 -36.3125 C 6.84375 -37.96875 7.304688 -39.359375 8.234375 -40.484375 L 24.125 -40.484375 Z M 22.734375 -14.96875 L 18.625 -29.34375 C 18.269531 -30.507812 17.820312 -31.5 17.28125 -32.3125 L 12.296875 -14.96875 Z M 22.734375 -14.96875 "/></g></g></g><g fill="#e6d7b3" fill-opacity="1"><g transform="translate(560.824416, 706.262912)"><g><path d="M 2.84375 0 C 2.414062 -0.46875 2.085938 -1.03125 1.859375 -1.6875 C 1.628906 -2.34375 1.515625 -3.019531 1.515625 -3.71875 C 2.828125 -3.71875 3.753906 -3.925781 4.296875 -4.34375 C 4.835938 -4.769531 5.109375 -5.523438 5.109375 -6.609375 L 5.109375 -33.875 C 5.109375 -34.957031 4.835938 -35.71875 4.296875 -36.15625 C 3.753906 -36.601562 2.828125 -36.828125 1.515625 -36.828125 C 1.515625 -37.523438 1.628906 -38.191406 1.859375 -38.828125 C 2.085938 -39.460938 2.414062 -40.015625 2.84375 -40.484375 L 17.171875 -40.484375 C 18.015625 -39.597656 18.4375 -38.378906 18.4375 -36.828125 C 17.125 -36.828125 16.15625 -36.59375 15.53125 -36.125 C 14.914062 -35.664062 14.609375 -34.914062 14.609375 -33.875 L 14.609375 -4.9375 L 16.765625 -4.9375 C 19.585938 -4.9375 21.679688 -5.863281 23.046875 -7.71875 C 24.421875 -9.570312 25.109375 -12.179688 25.109375 -15.546875 L 29.171875 -15.546875 C 29.828125 -15.046875 30.347656 -13.960938 30.734375 -12.296875 C 31.117188 -10.628906 31.3125 -9.003906 31.3125 -7.421875 C 31.3125 -4.984375 30.882812 -3.132812 30.03125 -1.875 C 29.1875 -0.625 27.800781 0 25.875 0 Z M 2.84375 0 "/></g></g></g><g fill="#e6d7b3" fill-opacity="1"><g transform="translate(607.628323, 706.262912)"><g><path d="M 50.109375 -40.484375 C 50.535156 -40.015625 50.863281 -39.453125 51.09375 -38.796875 C 51.332031 -38.140625 51.453125 -37.484375 51.453125 -36.828125 C 50.128906 -36.828125 49.148438 -36.59375 48.515625 -36.125 C 47.878906 -35.664062 47.5625 -34.914062 47.5625 -33.875 L 47.5625 -6.609375 C 47.5625 -5.523438 47.859375 -4.769531 48.453125 -4.34375 C 49.054688 -3.925781 50.054688 -3.71875 51.453125 -3.71875 C 51.453125 -3.019531 51.332031 -2.34375 51.09375 -1.6875 C 50.863281 -1.03125 50.535156 -0.46875 50.109375 0 L 35.734375 0 C 35.335938 -0.46875 35.023438 -1.03125 34.796875 -1.6875 C 34.566406 -2.34375 34.453125 -3.019531 34.453125 -3.71875 C 35.804688 -3.71875 36.8125 -3.9375 37.46875 -4.375 C 38.125 -4.820312 38.453125 -5.566406 38.453125 -6.609375 L 38.453125 -30.625 L 28.59375 -5.734375 C 28.09375 -4.535156 27.394531 -3.710938 26.5 -3.265625 C 25.613281 -2.828125 24.457031 -2.609375 23.03125 -2.609375 L 11.546875 -30.625 L 11.546875 -6.609375 C 11.546875 -5.566406 11.921875 -4.820312 12.671875 -4.375 C 13.421875 -3.9375 14.570312 -3.71875 16.125 -3.71875 C 16.125 -3.019531 16.003906 -2.34375 15.765625 -1.6875 C 15.535156 -1.03125 15.226562 -0.46875 14.84375 0 L 2.78125 0 C 2.394531 -0.46875 2.085938 -1.03125 1.859375 -1.6875 C 1.628906 -2.34375 1.515625 -3.019531 1.515625 -3.71875 C 2.941406 -3.71875 3.984375 -3.9375 4.640625 -4.375 C 5.296875 -4.820312 5.625 -5.566406 5.625 -6.609375 L 5.625 -33.875 C 5.625 -34.914062 5.273438 -35.664062 4.578125 -36.125 C 3.878906 -36.59375 2.859375 -36.828125 1.515625 -36.828125 C 1.515625 -37.484375 1.628906 -38.140625 1.859375 -38.796875 C 2.085938 -39.453125 2.414062 -40.015625 2.84375 -40.484375 L 11.953125 -40.484375 C 13.765625 -40.484375 15.210938 -40.222656 16.296875 -39.703125 C 17.378906 -39.179688 18.25 -38.144531 18.90625 -36.59375 L 25.0625 -21.453125 L 27.375 -14.265625 L 29.578125 -21.453125 L 36.890625 -40.484375 Z M 50.109375 -40.484375 "/></g></g></g><g fill="#d98d30" fill-opacity="1"><g transform="translate(290.436265, 765.712949)"><g><path d="M 25.921875 -20.9375 C 26.140625 -20.695312 26.304688 -20.40625 26.421875 -20.0625 C 26.546875 -19.726562 26.609375 -19.390625 26.609375 -19.046875 C 25.929688 -19.046875 25.425781 -18.925781 25.09375 -18.6875 C 24.757812 -18.445312 24.59375 -18.054688 24.59375 -17.515625 L 24.59375 -3.421875 C 24.59375 -2.859375 24.75 -2.46875 25.0625 -2.25 C 25.375 -2.03125 25.890625 -1.921875 26.609375 -1.921875 C 26.609375 -1.554688 26.546875 -1.203125 26.421875 -0.859375 C 26.304688 -0.523438 26.140625 -0.238281 25.921875 0 L 18.484375 0 C 18.285156 -0.238281 18.125 -0.523438 18 -0.859375 C 17.875 -1.203125 17.8125 -1.554688 17.8125 -1.921875 C 18.519531 -1.921875 19.039062 -2.035156 19.375 -2.265625 C 19.71875 -2.492188 19.890625 -2.878906 19.890625 -3.421875 L 19.890625 -15.84375 L 14.796875 -2.96875 C 14.535156 -2.351562 14.171875 -1.925781 13.703125 -1.6875 C 13.242188 -1.457031 12.644531 -1.34375 11.90625 -1.34375 L 5.96875 -15.84375 L 5.96875 -3.421875 C 5.96875 -2.878906 6.160156 -2.492188 6.546875 -2.265625 C 6.941406 -2.035156 7.539062 -1.921875 8.34375 -1.921875 C 8.34375 -1.554688 8.28125 -1.203125 8.15625 -0.859375 C 8.039062 -0.523438 7.882812 -0.238281 7.6875 0 L 1.4375 0 C 1.238281 -0.238281 1.078125 -0.523438 0.953125 -0.859375 C 0.835938 -1.203125 0.78125 -1.554688 0.78125 -1.921875 C 1.519531 -1.921875 2.054688 -2.035156 2.390625 -2.265625 C 2.734375 -2.492188 2.90625 -2.878906 2.90625 -3.421875 L 2.90625 -17.515625 C 2.90625 -18.054688 2.722656 -18.445312 2.359375 -18.6875 C 2.003906 -18.925781 1.476562 -19.046875 0.78125 -19.046875 C 0.78125 -19.390625 0.835938 -19.726562 0.953125 -20.0625 C 1.078125 -20.40625 1.25 -20.695312 1.46875 -20.9375 L 6.1875 -20.9375 C 7.125 -20.9375 7.867188 -20.800781 8.421875 -20.53125 C 8.984375 -20.257812 9.4375 -19.726562 9.78125 -18.9375 L 12.953125 -11.09375 L 14.15625 -7.375 L 15.296875 -11.09375 L 19.078125 -20.9375 Z M 25.921875 -20.9375 "/></g></g></g><g fill="#d98d30" fill-opacity="1"><g transform="translate(325.926232, 765.712949)"><g><path d="M 17.96875 -6.328125 C 17.96875 -5.671875 17.804688 -4.492188 17.484375 -2.796875 C 17.171875 -1.109375 16.882812 -0.015625 16.625 0.484375 C 16.300781 0.398438 15.878906 0.238281 15.359375 0 L 1.46875 0 C 1.007812 -0.601562 0.78125 -1.234375 0.78125 -1.890625 C 1.457031 -1.890625 1.957031 -2.007812 2.28125 -2.25 C 2.601562 -2.488281 2.765625 -2.890625 2.765625 -3.453125 L 2.765625 -17.515625 C 2.765625 -18.054688 2.609375 -18.445312 2.296875 -18.6875 C 1.984375 -18.925781 1.488281 -19.046875 0.8125 -19.046875 C 0.8125 -19.710938 1.039062 -20.34375 1.5 -20.9375 L 13.140625 -20.9375 C 13.484375 -21.101562 13.878906 -21.226562 14.328125 -21.3125 C 14.773438 -21.40625 15.1875 -21.453125 15.5625 -21.453125 C 15.863281 -20.867188 16.1875 -20.066406 16.53125 -19.046875 C 16.882812 -18.023438 17.0625 -17.285156 17.0625 -16.828125 C 16.820312 -16.609375 16.410156 -16.378906 15.828125 -16.140625 C 15.253906 -15.898438 14.757812 -15.738281 14.34375 -15.65625 C 14.082031 -16.394531 13.671875 -17.035156 13.109375 -17.578125 C 12.546875 -18.117188 11.894531 -18.390625 11.15625 -18.390625 L 7.765625 -18.390625 L 7.765625 -12.0625 L 9.9375 -12.0625 C 11.226562 -12.0625 11.875 -12.789062 11.875 -14.25 C 12.78125 -14.25 13.59375 -14.039062 14.3125 -13.625 L 14.3125 -8.046875 C 13.988281 -7.835938 13.613281 -7.675781 13.1875 -7.5625 C 12.769531 -7.457031 12.34375 -7.40625 11.90625 -7.40625 C 11.90625 -8.164062 11.722656 -8.734375 11.359375 -9.109375 C 11.003906 -9.492188 10.535156 -9.6875 9.953125 -9.6875 L 7.765625 -9.6875 L 7.765625 -2.640625 L 11.40625 -2.640625 C 12.238281 -2.640625 12.960938 -2.992188 13.578125 -3.703125 C 14.203125 -4.410156 14.597656 -5.285156 14.765625 -6.328125 Z M 17.96875 -6.328125 "/></g></g></g><g fill="#d98d30" fill-opacity="1"><g transform="translate(352.476212, 765.712949)"><g><path d="M 8.765625 0.328125 C 8.296875 0.328125 7.734375 0.296875 7.078125 0.234375 C 4.941406 0.078125 3.0625 0 1.4375 0 C 1 -0.5625 0.78125 -1.203125 0.78125 -1.921875 C 1.4375 -1.921875 1.910156 -2.035156 2.203125 -2.265625 C 2.492188 -2.492188 2.640625 -2.890625 2.640625 -3.453125 L 2.640625 -17.546875 C 2.640625 -18.085938 2.492188 -18.472656 2.203125 -18.703125 C 1.910156 -18.929688 1.4375 -19.046875 0.78125 -19.046875 C 0.78125 -19.804688 1 -20.4375 1.4375 -20.9375 C 2.957031 -20.9375 4.328125 -20.976562 5.546875 -21.0625 C 6.765625 -21.144531 7.484375 -21.191406 7.703125 -21.203125 C 8.390625 -21.265625 8.882812 -21.296875 9.1875 -21.296875 C 11.40625 -21.296875 13.269531 -20.835938 14.78125 -19.921875 C 16.289062 -19.003906 17.410156 -17.757812 18.140625 -16.1875 C 18.867188 -14.613281 19.234375 -12.859375 19.234375 -10.921875 C 19.234375 -8.773438 18.859375 -6.859375 18.109375 -5.171875 C 17.359375 -3.484375 16.203125 -2.144531 14.640625 -1.15625 C 13.078125 -0.164062 11.117188 0.328125 8.765625 0.328125 Z M 8.515625 -2.15625 C 10.234375 -2.15625 11.554688 -2.8125 12.484375 -4.125 C 13.421875 -5.4375 13.890625 -7.550781 13.890625 -10.46875 C 13.890625 -13.289062 13.394531 -15.398438 12.40625 -16.796875 C 11.414062 -18.203125 10.039062 -18.90625 8.28125 -18.90625 C 7.9375 -18.90625 7.695312 -18.882812 7.5625 -18.84375 L 7.5625 -2.21875 C 7.757812 -2.175781 8.078125 -2.15625 8.515625 -2.15625 Z M 8.515625 -2.15625 "/></g></g></g><g fill="#d98d30" fill-opacity="1"><g transform="translate(380.616185, 765.712949)"><g><path d="M 1.53125 0 C 1.332031 -0.238281 1.171875 -0.523438 1.046875 -0.859375 C 0.929688 -1.203125 0.875 -1.554688 0.875 -1.921875 C 1.53125 -1.921875 1.992188 -2.03125 2.265625 -2.25 C 2.535156 -2.46875 2.671875 -2.859375 2.671875 -3.421875 L 2.671875 -17.515625 C 2.671875 -18.078125 2.535156 -18.472656 2.265625 -18.703125 C 1.992188 -18.929688 1.53125 -19.046875 0.875 -19.046875 C 0.875 -19.390625 0.929688 -19.726562 1.046875 -20.0625 C 1.171875 -20.40625 1.332031 -20.695312 1.53125 -20.9375 L 8.8125 -20.9375 C 9.019531 -20.695312 9.179688 -20.40625 9.296875 -20.0625 C 9.421875 -19.726562 9.484375 -19.390625 9.484375 -19.046875 C 8.816406 -19.046875 8.347656 -18.929688 8.078125 -18.703125 C 7.816406 -18.472656 7.6875 -18.078125 7.6875 -17.515625 L 7.6875 -3.421875 C 7.6875 -2.859375 7.816406 -2.46875 8.078125 -2.25 C 8.347656 -2.03125 8.816406 -1.921875 9.484375 -1.921875 C 9.484375 -1.554688 9.421875 -1.203125 9.296875 -0.859375 C 9.179688 -0.523438 9.019531 -0.238281 8.8125 0 Z M 1.53125 0 "/></g></g></g><g fill="#d98d30" fill-opacity="1"><g transform="translate(399.066177, 765.712949)"><g><path d="M 18.0625 -3.953125 C 18.257812 -3.316406 18.597656 -2.816406 19.078125 -2.453125 C 19.554688 -2.097656 20.066406 -1.921875 20.609375 -1.921875 C 20.609375 -1.554688 20.546875 -1.203125 20.421875 -0.859375 C 20.304688 -0.523438 20.140625 -0.238281 19.921875 0 L 11.796875 0 C 11.566406 -0.238281 11.390625 -0.523438 11.265625 -0.859375 C 11.148438 -1.203125 11.09375 -1.554688 11.09375 -1.921875 C 12.238281 -1.921875 12.8125 -2.398438 12.8125 -3.359375 C 12.8125 -3.753906 12.738281 -4.222656 12.59375 -4.765625 L 12.421875 -5.40625 L 5.703125 -5.40625 L 5.515625 -4.765625 C 5.335938 -4.148438 5.25 -3.710938 5.25 -3.453125 C 5.25 -2.429688 5.890625 -1.921875 7.171875 -1.921875 C 7.171875 -1.554688 7.109375 -1.203125 6.984375 -0.859375 C 6.867188 -0.523438 6.703125 -0.238281 6.484375 0 L -0.203125 0 C -0.429688 -0.238281 -0.601562 -0.523438 -0.71875 -0.859375 C -0.84375 -1.203125 -0.90625 -1.554688 -0.90625 -1.921875 C -0.34375 -1.921875 0.164062 -2.082031 0.625 -2.40625 C 1.082031 -2.738281 1.425781 -3.226562 1.65625 -3.875 L 6.5625 -18.390625 C 5.769531 -18.648438 4.765625 -18.78125 3.546875 -18.78125 C 3.546875 -19.632812 3.785156 -20.351562 4.265625 -20.9375 L 12.484375 -20.9375 Z M 11.765625 -7.734375 L 9.625 -15.1875 C 9.445312 -15.78125 9.21875 -16.285156 8.9375 -16.703125 L 6.359375 -7.734375 Z M 11.765625 -7.734375 "/></g></g></g><g fill="#d98d30" fill-opacity="1"><g transform="translate(426.876154, 765.712949)"><g><path d="M 4.140625 -7.375 C 4.460938 -5.695312 5.09375 -4.375 6.03125 -3.40625 C 6.96875 -2.4375 8.078125 -1.953125 9.359375 -1.953125 C 10.203125 -1.953125 10.820312 -2.191406 11.21875 -2.671875 C 11.613281 -3.148438 11.8125 -3.679688 11.8125 -4.265625 C 11.8125 -5.117188 11.4375 -5.835938 10.6875 -6.421875 C 9.9375 -7.015625 8.863281 -7.65625 7.46875 -8.34375 C 5.59375 -9.257812 4.171875 -10.273438 3.203125 -11.390625 C 2.242188 -12.515625 1.765625 -13.878906 1.765625 -15.484375 C 1.765625 -16.660156 2.0625 -17.679688 2.65625 -18.546875 C 3.25 -19.421875 4.050781 -20.085938 5.0625 -20.546875 C 6.082031 -21.003906 7.222656 -21.234375 8.484375 -21.234375 C 9.148438 -21.234375 9.867188 -21.164062 10.640625 -21.03125 C 11.410156 -20.90625 12.023438 -20.710938 12.484375 -20.453125 L 15.03125 -21.234375 C 15.382812 -20.617188 15.613281 -19.765625 15.71875 -18.671875 C 15.820312 -17.585938 15.875 -16.332031 15.875 -14.90625 L 15.875 -14.453125 L 13.375 -14.453125 C 12.65625 -17.378906 11.25 -18.84375 9.15625 -18.84375 C 8.351562 -18.84375 7.75 -18.613281 7.34375 -18.15625 C 6.945312 -17.707031 6.75 -17.113281 6.75 -16.375 C 6.75 -15.78125 6.90625 -15.257812 7.21875 -14.8125 C 7.539062 -14.375 7.945312 -14 8.4375 -13.6875 C 8.9375 -13.382812 9.59375 -13.03125 10.40625 -12.625 C 11.664062 -12.007812 12.71875 -11.429688 13.5625 -10.890625 C 14.414062 -10.347656 15.148438 -9.628906 15.765625 -8.734375 C 16.390625 -7.847656 16.703125 -6.796875 16.703125 -5.578125 C 16.703125 -4.460938 16.421875 -3.445312 15.859375 -2.53125 C 15.304688 -1.625 14.492188 -0.898438 13.421875 -0.359375 C 12.347656 0.179688 11.101562 0.453125 9.6875 0.453125 C 8.070312 0.453125 6.460938 0.113281 4.859375 -0.5625 L 2.546875 0.453125 C 2.171875 -0.304688 1.84375 -1.488281 1.5625 -3.09375 C 1.28125 -4.707031 1.140625 -6.132812 1.140625 -7.375 Z M 4.140625 -7.375 "/></g></g></g><g fill="#d98d30" fill-opacity="1"><g transform="translate(452.766133, 765.712949)"><g><path d="M 10.015625 0.390625 C 8.097656 0.390625 6.441406 -0.0507812 5.046875 -0.9375 C 3.660156 -1.832031 2.597656 -3.097656 1.859375 -4.734375 C 1.117188 -6.378906 0.75 -8.28125 0.75 -10.4375 C 0.75 -12.695312 1.128906 -14.640625 1.890625 -16.265625 C 2.648438 -17.898438 3.722656 -19.144531 5.109375 -20 C 6.503906 -20.863281 8.128906 -21.296875 9.984375 -21.296875 C 11.910156 -21.296875 13.570312 -20.84375 14.96875 -19.9375 C 16.363281 -19.039062 17.4375 -17.773438 18.1875 -16.140625 C 18.9375 -14.515625 19.3125 -12.613281 19.3125 -10.4375 C 19.3125 -8.195312 18.925781 -6.257812 18.15625 -4.625 C 17.394531 -3 16.3125 -1.753906 14.90625 -0.890625 C 13.507812 -0.0351562 11.878906 0.390625 10.015625 0.390625 Z M 10.015625 -1.796875 C 11.117188 -1.796875 12.015625 -2.425781 12.703125 -3.6875 C 13.390625 -4.945312 13.734375 -7.238281 13.734375 -10.5625 C 13.734375 -13.71875 13.410156 -15.925781 12.765625 -17.1875 C 12.128906 -18.445312 11.234375 -19.078125 10.078125 -19.078125 C 8.984375 -19.078125 8.085938 -18.445312 7.390625 -17.1875 C 6.703125 -15.925781 6.359375 -13.644531 6.359375 -10.34375 C 6.359375 -7.1875 6.679688 -4.972656 7.328125 -3.703125 C 7.984375 -2.429688 8.878906 -1.796875 10.015625 -1.796875 Z M 10.015625 -1.796875 "/></g></g></g><g fill="#d98d30" fill-opacity="1"><g transform="translate(480.936118, 765.712949)"><g><path d="M 10.203125 -11.40625 C 10.765625 -11.40625 11.164062 -11.585938 11.40625 -11.953125 C 11.644531 -12.328125 11.765625 -12.921875 11.765625 -13.734375 C 12.222656 -13.734375 12.691406 -13.671875 13.171875 -13.546875 C 13.648438 -13.429688 14.039062 -13.273438 14.34375 -13.078125 L 14.34375 -7.53125 C 14.039062 -7.332031 13.648438 -7.171875 13.171875 -7.046875 C 12.691406 -6.929688 12.222656 -6.875 11.765625 -6.875 C 11.765625 -7.6875 11.644531 -8.269531 11.40625 -8.625 C 11.175781 -8.976562 10.785156 -9.15625 10.234375 -9.15625 L 7.734375 -9.15625 L 7.734375 -3.8125 C 7.734375 -3.1875 7.867188 -2.734375 8.140625 -2.453125 C 8.410156 -2.179688 8.9375 -2.046875 9.71875 -2.046875 L 12.125 -2.046875 C 12.125 -1.097656 11.941406 -0.414062 11.578125 0 L 1.46875 0 C 1.25 -0.238281 1.078125 -0.523438 0.953125 -0.859375 C 0.835938 -1.203125 0.78125 -1.554688 0.78125 -1.921875 C 1.582031 -1.921875 2.117188 -2.03125 2.390625 -2.25 C 2.671875 -2.46875 2.8125 -2.859375 2.8125 -3.421875 L 2.8125 -17.515625 C 2.8125 -18.054688 2.65625 -18.441406 2.34375 -18.671875 C 2.039062 -18.898438 1.5625 -19.015625 0.90625 -19.015625 C 0.90625 -19.753906 1.132812 -20.382812 1.59375 -20.90625 L 13.046875 -20.90625 C 13.828125 -21.25 14.585938 -21.421875 15.328125 -21.421875 C 15.566406 -20.960938 15.789062 -20.226562 16 -19.21875 C 16.207031 -18.207031 16.3125 -17.429688 16.3125 -16.890625 C 16.070312 -16.671875 15.691406 -16.445312 15.171875 -16.21875 C 14.660156 -15.988281 14.191406 -15.832031 13.765625 -15.75 C 13.523438 -16.507812 13.128906 -17.132812 12.578125 -17.625 C 12.035156 -18.113281 11.300781 -18.359375 10.375 -18.359375 L 7.734375 -18.359375 L 7.734375 -11.40625 Z M 10.203125 -11.40625 "/></g></g></g><g fill="#d98d30" fill-opacity="1"><g transform="translate(505.956106, 765.712949)"><g><path d="M 17.875 -21.296875 C 18.195312 -20.597656 18.445312 -19.328125 18.625 -17.484375 C 18.8125 -15.648438 18.90625 -14.140625 18.90625 -12.953125 C 18.644531 -12.859375 18.238281 -12.78125 17.6875 -12.71875 C 17.132812 -12.65625 16.640625 -12.625 16.203125 -12.625 C 16.078125 -14.226562 15.878906 -15.457031 15.609375 -16.3125 C 15.335938 -17.175781 14.972656 -17.765625 14.515625 -18.078125 C 14.054688 -18.398438 13.457031 -18.5625 12.71875 -18.5625 L 12.203125 -18.5625 L 12.203125 -3.546875 C 12.203125 -2.984375 12.460938 -2.570312 12.984375 -2.3125 C 13.503906 -2.050781 14.304688 -1.921875 15.390625 -1.921875 C 15.390625 -1.554688 15.328125 -1.203125 15.203125 -0.859375 C 15.085938 -0.523438 14.921875 -0.238281 14.703125 0 L 4.5 0 C 4.300781 -0.238281 4.140625 -0.523438 4.015625 -0.859375 C 3.898438 -1.203125 3.84375 -1.554688 3.84375 -1.921875 C 6.101562 -1.921875 7.234375 -2.460938 7.234375 -3.546875 L 7.234375 -18.5625 L 6.5625 -18.5625 C 4.46875 -18.5625 3.257812 -16.582031 2.9375 -12.625 C 1.539062 -12.6875 0.640625 -12.796875 0.234375 -12.953125 C 0.234375 -14.140625 0.320312 -15.648438 0.5 -17.484375 C 0.6875 -19.328125 0.941406 -20.597656 1.265625 -21.296875 C 2.179688 -21.296875 3 -21.175781 3.71875 -20.9375 L 15.421875 -20.9375 C 16.179688 -21.175781 17 -21.296875 17.875 -21.296875 Z M 17.875 -21.296875 "/></g></g></g></svg>